HIERARCHY
ROOT root
{
	OFFSET	0	13.1	24.9
	CHANNELS 6  Xposition Yposition Zposition Xrotation Yrotation Zrotation
	JOINT spine_1
	{
		OFFSET	0	9.99999	0
		CHANNELS 3  Xrotation Yrotation Zrotation
		JOINT spine_2
		{
			OFFSET	0	112	-10
			CHANNELS 3  Xrotation Yrotation Zrotation
			JOINT spine_3
			{
				OFFSET	0	206.5	19.3
				CHANNELS 3  Xrotation Yrotation Zrotation
				JOINT spine_4
				{
					OFFSET	0	110.4	14.6
					CHANNELS 3  Xrotation Yrotation Zrotation
					JOINT neck_1
					{
						OFFSET	0	71.8	-50.3
						CHANNELS 3  Xrotation Yrotation Zrotation
						JOINT neck_2
						{
							OFFSET	0	86.2	-25.8
							CHANNELS 3  Xrotation Yrotation Zrotation
							JOINT head_ee
							{
								OFFSET	0	179.8	-8.7
								CHANNELS 3  Xrotation Yrotation Zrotation
								End Site
								{
									OFFSET	1	0	0
								}
							}
						}
					}
					JOINT left_clavicle
					{
						OFFSET	-43.2	22.4	-70.8
						CHANNELS 3  Xrotation Yrotation Zrotation
						JOINT left_shoulder
						{
							OFFSET	-93.9	-5.79999	48.7
							CHANNELS 3  Xrotation Yrotation Zrotation
							JOINT left_elbow
							{
								OFFSET	-291.4	-30.8	15.2
								CHANNELS 3  Xrotation Yrotation Zrotation
								JOINT left_lowarm_twist
								{
									OFFSET	-110.7	-3.89999	13.6
									CHANNELS 3  Xrotation Yrotation Zrotation
									JOINT left_hand
									{
										OFFSET	-110.7	-3.89999	13.6
										CHANNELS 3  Xrotation Yrotation Zrotation
										JOINT left_ee
										{
											OFFSET	-80.8	-5.10001	12.1
											CHANNELS 3  Xrotation Yrotation Zrotation
											End Site
											{
												OFFSET	1	0	0
											}
										}
									}
								}
							}
						}
					}
					JOINT right_clavicle
					{
						OFFSET	43.2	22.4	-70.8
						CHANNELS 3  Xrotation Yrotation Zrotation
						JOINT right_shoulder
						{
							OFFSET	93.9	-5.79999	48.7
							CHANNELS 3  Xrotation Yrotation Zrotation
							JOINT right_elbow
							{
								OFFSET	291.4	-30.8	15.2
								CHANNELS 3  Xrotation Yrotation Zrotation
								JOINT right_lowarm_twist
								{
									OFFSET	110.7	-3.89999	13.6
									CHANNELS 3  Xrotation Yrotation Zrotation
									JOINT right_hand
									{
										OFFSET	110.7	-3.89999	13.6
										CHANNELS 3  Xrotation Yrotation Zrotation
										JOINT right_ee
										{
											OFFSET	80.8	-5.10001	12.1
											CHANNELS 3  Xrotation Yrotation Zrotation
											End Site
											{
												OFFSET	1	0	0
											}
										}
									}
								}
							}
						}
					}
				}
			}
		}
	}
	JOINT left_hip
	{
		OFFSET	-82.8	-127.5	0.300001
		CHANNELS 3  Xrotation Yrotation Zrotation
		JOINT left_knee
		{
			OFFSET	-28.2	-396.7	2.2
			CHANNELS 3  Xrotation Yrotation Zrotation
			JOINT left_ankle
			{
				OFFSET	-11.7	-411.3	35.4
				CHANNELS 3  Xrotation Yrotation Zrotation
				JOINT left_toes
				{
					OFFSET	0	-60	-88.6
					CHANNELS 3  Xrotation Yrotation Zrotation
					JOINT left_foot_ee
					{
						OFFSET	-22.5	-16.5	-42.2
						CHANNELS 3  Xrotation Yrotation Zrotation
						End Site
						{
							OFFSET	1	0	0
						}
					}
				}
			}
		}
	}
	JOINT right_hip
	{
		OFFSET	82.8	-127.5	0.300001
		CHANNELS 3  Xrotation Yrotation Zrotation
		JOINT right_knee
		{
			OFFSET	28.2	-396.7	2.2
			CHANNELS 3  Xrotation Yrotation Zrotation
			JOINT right_ankle
			{
				OFFSET	11.7	-411.3	35.4
				CHANNELS 3  Xrotation Yrotation Zrotation
				JOINT right_toes
				{
					OFFSET	0	-60	-88.6
					CHANNELS 3  Xrotation Yrotation Zrotation
					JOINT right_foot_ee
					{
						OFFSET	22.5	-16.5	-42.2
						CHANNELS 3  Xrotation Yrotation Zrotation
						End Site
						{
							OFFSET	1	0	0
						}
					}
				}
			}
		}
	}
}
MOTION
Frames: 10
Frame Time: 0.02
3574.42 741.953 -1474.73 -139.647035069 83.3630514577 136.08637935 0.710748 0.551342 1.3952 0.711712 0.461454 1.42745 0.723745 0.170064 1.4905 0.720872 0.403301 1.44495 -9.43783 7.01029 0.840062 -9.4775 12.5944 2.51264 -0.0 0.0 -0.0 -1.43927 13.194 -0.815955 3.37001 -17.3418 67.0697 1.90165 -43.2856 0.75462 12.5144 0.270126 -1.57261 -0.635766 17.3898 3.19242 -0.0 0.0 -0.0 7.30052 9.05127 -14.0583 -20.2136 25.3468 -59.0585 0.907185 24.1985 -0.194475 -2.48386 0.0941125 -0.303184 -1.07127 -3.96027 5.41143 0.0 0.0 0.0 0.896083 15.7351 3.67837 5.55088 -0.26805 -0.809082 -13.8668 22.913 2.14185 25.5244 -0.0 -0.0 -0.0 0.0 -0.0 15.4694 -5.11933 5.38455 -16.773 -0.3201 -2.54491 10.6756 12.9044 1.61866 -0.795397 0.0 0.0 0.0 0.0 0.0 
3574.42 741.953 -1474.73 -136.780497913 83.7260590999 133.201573361 0.710748 0.551342 1.3952 0.711712 0.461454 1.42745 0.723745 0.170064 1.4905 0.720872 0.403301 1.44495 -9.43783 7.01029 0.840062 -9.4775 12.5944 2.51264 -0.0 0.0 -0.0 -1.43927 13.194 -0.815955 3.37001 -17.3418 67.0697 1.90165 -43.2856 0.75462 12.5144 0.270126 -1.57261 -0.635766 17.3898 3.19242 -0.0 0.0 -0.0 7.30052 9.05127 -14.0583 -20.2136 25.3468 -59.0585 0.907185 24.1985 -0.194475 -2.48386 0.0941125 -0.303184 -1.07127 -3.96027 5.41143 0.0 0.0 0.0 0.896083 15.7351 3.67837 5.55088 -0.26805 -0.809082 -13.8668 22.913 2.14185 25.5244 -0.0 -0.0 -0.0 0.0 -0.0 15.4694 -5.11933 5.38455 -16.773 -0.3201 -2.54491 10.6756 12.9044 1.61866 -0.795397 0.0 0.0 0.0 0.0 0.0 
3574.42 741.953 -1474.73 -133.243367515 84.1034244418 129.644431297 0.710748 0.551342 1.3952 0.711712 0.461454 1.42745 0.723745 0.170064 1.4905 0.720872 0.403301 1.44495 -9.43783 7.01029 0.840062 -9.4775 12.5944 2.51264 -0.0 0.0 -0.0 -1.43927 13.194 -0.815955 3.37001 -17.3418 67.0697 1.90165 -43.2856 0.75462 12.5144 0.270126 -1.57261 -0.635766 17.3898 3.19242 -0.0 0.0 -0.0 7.30052 9.05127 -14.0583 -20.2136 25.3468 -59.0585 0.907185 24.1985 -0.194475 -2.48386 0.0941125 -0.303184 -1.07127 -3.96027 5.41143 0.0 0.0 0.0 0.896083 15.7351 3.67837 5.55088 -0.26805 -0.809082 -13.8668 22.913 2.14185 25.5244 -0.0 -0.0 -0.0 0.0 -0.0 15.4694 -5.11933 5.38455 -16.773 -0.3201 -2.54491 10.6756 12.9044 1.61866 -0.795397 0.0 0.0 0.0 0.0 0.0 
3574.42 741.953 -1474.73 -124.139531762 84.8123884112 120.498195184 0.710748 0.551342 1.3952 0.711712 0.461454 1.42745 0.723745 0.170064 1.4905 0.720872 0.403301 1.44495 -9.43783 7.01029 0.840062 -9.4775 12.5944 2.51264 -0.0 0.0 -0.0 -1.43927 13.194 -0.815955 3.37001 -17.3418 67.0697 1.90165 -43.2856 0.75462 12.5144 0.270126 -1.57261 -0.635766 17.3898 3.19242 -0.0 0.0 -0.0 7.30052 9.05127 -14.0583 -20.2136 25.3468 -59.0585 0.907185 24.1985 -0.194475 -2.48386 0.0941125 -0.303184 -1.07127 -3.96027 5.41143 0.0 0.0 0.0 0.896083 15.7351 3.67837 5.55088 -0.26805 -0.809082 -13.8668 22.913 2.14185 25.5244 -0.0 -0.0 -0.0 0.0 -0.0 15.4694 -5.11933 5.38455 -16.773 -0.3201 -2.54491 10.6756 12.9044 1.61866 -0.795397 0.0 0.0 0.0 0.0 0.0 
3574.42 741.953 -1474.73 -114.917077938 85.2667579228 111.24129307 0.710748 0.551342 1.3952 0.711712 0.461454 1.42745 0.723745 0.170064 1.4905 0.720872 0.403301 1.44495 -9.43783 7.01029 0.840062 -9.4775 12.5944 2.51264 -0.0 0.0 -0.0 -1.43927 13.194 -0.815955 3.37001 -17.3418 67.0697 1.90165 -43.2856 0.75462 12.5144 0.270126 -1.57261 -0.635766 17.3898 3.19242 -0.0 0.0 -0.0 7.30052 9.05127 -14.0583 -20.2136 25.3468 -59.0585 0.907185 24.1985 -0.194475 -2.48386 0.0941125 -0.303184 -1.07127 -3.96027 5.41143 0.0 0.0 0.0 0.896083 15.7351 3.67837 5.55088 -0.26805 -0.809082 -13.8668 22.913 2.14185 25.5244 -0.0 -0.0 -0.0 0.0 -0.0 15.4694 -5.11933 5.38455 -16.773 -0.3201 -2.54491 10.6756 12.9044 1.61866 -0.795397 0.0 0.0 0.0 0.0 0.0 
3574.42 741.953 -1474.73 -99.4637920038 85.648871938 95.7399960514 0.710748 0.551342 1.3952 0.711712 0.461454 1.42745 0.723745 0.170064 1.4905 0.720872 0.403301 1.44495 -9.43783 7.01029 0.840062 -9.4775 12.5944 2.51264 -0.0 0.0 -0.0 -1.43927 13.194 -0.815955 3.37001 -17.3418 67.0697 1.90165 -43.2856 0.75462 12.5144 0.270126 -1.57261 -0.635766 17.3898 3.19242 -0.0 0.0 -0.0 7.30052 9.05127 -14.0583 -20.2136 25.3468 -59.0585 0.907185 24.1985 -0.194475 -2.48386 0.0941125 -0.303184 -1.07127 -3.96027 5.41143 0.0 0.0 0.0 0.896083 15.7351 3.67837 5.55088 -0.26805 -0.809082 -13.8668 22.913 2.14185 25.5244 -0.0 -0.0 -0.0 0.0 -0.0 15.4694 -5.11933 5.38455 -16.773 -0.3201 -2.54491 10.6756 12.9044 1.61866 -0.795397 0.0 0.0 0.0 0.0 0.0 
3574.42 741.953 -1474.73 -81.2737180027 85.6578460303 77.4983330163 0.710748 0.551342 1.3952 0.711712 0.461454 1.42745 0.723745 0.170064 1.4905 0.720872 0.403301 1.44495 -9.43783 7.01029 0.840062 -9.4775 12.5944 2.51264 -0.0 0.0 -0.0 -1.43927 13.194 -0.815955 3.37001 -17.3418 67.0697 1.90165 -43.2856 0.75462 12.5144 0.270126 -1.57261 -0.635766 17.3898 3.19242 -0.0 0.0 -0.0 7.30052 9.05127 -14.0583 -20.2136 25.3468 -59.0585 0.907185 24.1985 -0.194475 -2.48386 0.0941125 -0.303184 -1.07127 -3.96027 5.41143 0.0 0.0 0.0 0.896083 15.7351 3.67837 5.55088 -0.26805 -0.809082 -13.8668 22.913 2.14185 25.5244 -0.0 -0.0 -0.0 0.0 -0.0 15.4694 -5.11933 5.38455 -16.773 -0.3201 -2.54491 10.6756 12.9044 1.61866 -0.795397 0.0 0.0 0.0 0.0 0.0 
3574.42 741.953 -1474.73 -57.9361151964 84.9338106368 54.0844780877 0.710748 0.551342 1.3952 0.711712 0.461454 1.42745 0.723745 0.170064 1.4905 0.720872 0.403301 1.44495 -9.43783 7.01029 0.840062 -9.4775 12.5944 2.51264 -0.0 0.0 -0.0 -1.43927 13.194 -0.815955 3.37001 -17.3418 67.0697 1.90165 -43.2856 0.75462 12.5144 0.270126 -1.57261 -0.635766 17.3898 3.19242 -0.0 0.0 -0.0 7.30052 9.05127 -14.0583 -20.2136 25.3468 -59.0585 0.907185 24.1985 -0.194475 -2.48386 0.0941125 -0.303184 -1.07127 -3.96027 5.41143 0.0 0.0 0.0 0.896083 15.7351 3.67837 5.55088 -0.26805 -0.809082 -13.8668 22.913 2.14185 25.5244 -0.0 -0.0 -0.0 0.0 -0.0 15.4694 -5.11933 5.38455 -16.773 -0.3201 -2.54491 10.6756 12.9044 1.61866 -0.795397 0.0 0.0 0.0 0.0 0.0 
3555.70225363 731.728 -1483.34625091 -55.9803085762 85.4922202067 52.4907429671 0.580478 0.595696 1.26178 0.581216 0.514206 1.29712 0.593374 0.244433 1.37373 0.591033 0.458303 1.31791 -10.5928 7.58637 0.363846 -10.6687 14.074 2.32843 -0.0 0.0 -0.0 -1.60271 13.9755 -0.964034 1.61589 -17.2153 66.1022 2.59047 -52.0629 1.26538 13.8507 0.278525 -1.74309 -0.415382 10.5233 1.69855 -0.0 0.0 -0.0 7.42283 12.9565 -14.1561 -18.9713 25.9102 -60.2999 0.758837 20.6015 -0.137916 -1.1693 0.0426642 -0.143226 -0.626626 -5.01128 2.01844 0.0 0.0 0.0 3.31063 14.4693 1.96497 -0.477059 0.0193496 0.0706526 -14.2883 23.4156 2.2128 29.1793 -0.0 -0.0 -0.0 0.0 -0.0 12.9928 -6.09435 3.45755 -15.9387 -0.32189 -2.41691 12.942 11.2581 1.9241 -0.1678 0.0 0.0 0.0 0.0 0.0 
3550.18329477 730.889 -1486.37157553 -38.7875569537 84.3198584491 35.5757355467 0.514332 0.582428 1.29221 0.515122 0.499029 1.32664 0.527227 0.222039 1.39988 0.524762 0.440318 1.34726 -11.4667 7.91715 0.832516 -11.5656 14.4461 2.97929 -0.0 0.0 -0.0 -1.76682 14.0725 -1.21645 0.337181 -17.2912 65.5839 2.90381 -55.1827 1.51776 14.4217 0.280901 -1.81599 -0.368755 8.52018 1.15732 -0.0 0.0 -0.0 7.48243 14.5929 -14.1982 -18.8318 26.679 -60.6486 0.729734 19.8743 -0.127848 -0.845343 0.0305511 -0.103631 -0.450951 -6.12304 0.390883 0.0 0.0 0.0 5.50057 13.6501 1.06099 -3.43342 0.12606 0.511765 -15.0174 24.8673 2.34348 30.7351 -0.0 -0.0 -0.0 0.0 -0.0 12.3813 -5.14753 2.79626 -15.6154 -0.322083 -2.36731 14.315 10.3482 2.10454 0.237378 -0.0 -0.0 0.0 0.0 0.0 
